<svg width="61" height="24" viewBox="0 0 61 24" fill="none" xmlns="http://www.w3.org/2000/svg">
<path d="M9.68 1.432C8.25067 1.432 6.91733 1.79467 5.68 2.52C4.464 3.224 3.49333 4.19467 2.768 5.432C2.04267 6.648 1.68 7.98133 1.68 9.432V13.656C1.68 15.1707 1.89333 16.4187 2.32 17.4C2.91733 18.7867 3.824 19.9173 5.04 20.792C6.256 21.6667 7.62133 22.1573 9.136 22.264V11.864H18.896V13.976C18.896 15.3413 18.6933 16.5573 18.288 17.624C17.6267 19.3947 16.5173 20.8133 14.96 21.88C13.4027 22.9467 11.6427 23.48 9.68 23.48C7.824 23.48 6.128 22.9787 4.592 21.976C3.07733 20.952 1.968 19.5973 1.264 17.912C0.752 16.7173 0.496 15.2987 0.496 13.656V9.432C0.496 7.768 0.901333 6.232 1.712 4.824C2.544 3.416 3.664 2.30667 5.072 1.496C6.48 0.663999 8.016 0.247999 9.68 0.247999C11.0667 0.247999 12.336 0.482666 13.488 0.952C14.64 1.4 15.6213 2.06133 16.432 2.936C17.0933 3.66133 17.6267 4.472 18.032 5.368C18.4587 6.264 18.672 7.17067 18.672 8.088H17.52C17.4987 7.29867 17.296 6.52 16.912 5.752C16.5493 4.984 16.08 4.29067 15.504 3.672C14.0747 2.17867 12.1333 1.432 9.68 1.432ZM17.712 13.016H10.288V22.264C11.824 22.1573 13.2 21.6773 14.416 20.824C15.6533 19.9493 16.56 18.7973 17.136 17.368C17.52 16.3653 17.712 15.2347 17.712 13.976V13.016ZM43.2555 17.336V23H26.2955V0.727999H27.4795V17.336H43.2555ZM54.303 20.568C54.303 19.7787 54.5803 19.1067 55.135 18.552C55.711 17.976 56.4043 17.688 57.215 17.688C58.0257 17.688 58.7083 17.976 59.263 18.552C59.839 19.1067 60.127 19.7787 60.127 20.568C60.127 21.3573 59.839 22.04 59.263 22.616C58.7083 23.192 58.0257 23.48 57.215 23.48C56.4257 23.48 55.743 23.192 55.167 22.616C54.591 22.04 54.303 21.3573 54.303 20.568Z" fill="#DFEAF1"/>
</svg>
