<svg width="38" height="16" viewBox="0 0 38 16" fill="none" xmlns="http://www.w3.org/2000/svg">
<path d="M6.3 1.52C5.40667 1.52 4.57333 1.74667 3.8 2.2C3.04 2.64 2.43333 3.24667 1.98 4.02C1.52667 4.78 1.3 5.61333 1.3 6.52V9.16C1.3 10.1067 1.43333 10.8867 1.7 11.5C2.07333 12.3667 2.64 13.0733 3.4 13.62C4.16 14.1667 5.01333 14.4733 5.96 14.54V8.04H12.06V9.36C12.06 10.2133 11.9333 10.9733 11.68 11.64C11.2667 12.7467 10.5733 13.6333 9.6 14.3C8.62667 14.9667 7.52667 15.3 6.3 15.3C5.14 15.3 4.08 14.9867 3.12 14.36C2.17333 13.72 1.48 12.8733 1.04 11.82C0.72 11.0733 0.56 10.1867 0.56 9.16V6.52C0.56 5.48 0.813333 4.52 1.32 3.64C1.84 2.76 2.54 2.06667 3.42 1.56C4.3 1.04 5.26 0.779999 6.3 0.779999C7.16667 0.779999 7.96 0.926666 8.68 1.22C9.4 1.5 10.0133 1.91333 10.52 2.46C10.9333 2.91333 11.2667 3.42 11.52 3.98C11.7867 4.54 11.92 5.10667 11.92 5.68H11.2C11.1867 5.18667 11.06 4.7 10.82 4.22C10.5933 3.74 10.3 3.30667 9.94 2.92C9.04667 1.98667 7.83333 1.52 6.3 1.52ZM11.32 8.76H6.68V14.54C7.64 14.4733 8.5 14.1733 9.26 13.64C10.0333 13.0933 10.6 12.3733 10.96 11.48C11.2 10.8533 11.32 10.1467 11.32 9.36V8.76ZM27.2847 11.46V15H16.6847V1.08H17.4247V11.46H27.2847ZM34.1894 13.48C34.1894 12.9867 34.3627 12.5667 34.7094 12.22C35.0694 11.86 35.5027 11.68 36.0094 11.68C36.516 11.68 36.9427 11.86 37.2894 12.22C37.6494 12.5667 37.8294 12.9867 37.8294 13.48C37.8294 13.9733 37.6494 14.4 37.2894 14.76C36.9427 15.12 36.516 15.3 36.0094 15.3C35.516 15.3 35.0894 15.12 34.7294 14.76C34.3694 14.4 34.1894 13.9733 34.1894 13.48Z" fill="url(#paint0_linear_4_5)"/>
<defs>
<linearGradient id="paint0_linear_4_5" x1="21.5" y1="-3" x2="21.5" y2="24.5" gradientUnits="userSpaceOnUse">
<stop stop-color="#15EEC7"/>
<stop offset="1" stop-color="#0E95F7"/>
</linearGradient>
</defs>
</svg>
