<svg width="33" height="33" viewBox="0 0 33 33" fill="none" xmlns="http://www.w3.org/2000/svg">
<path d="M12.4098 8.8196L4.24608 16.0696L12.4048 23.3196C12.5033 23.4068 12.5837 23.5125 12.6413 23.6307C12.699 23.7489 12.7327 23.8773 12.7408 24.0086C12.7488 24.1399 12.7308 24.2715 12.688 24.3958C12.6452 24.5202 12.5782 24.6349 12.4911 24.7333C12.4039 24.8318 12.2982 24.9122 12.18 24.9698C12.0618 25.0275 11.9333 25.0613 11.8021 25.0693C11.6708 25.0773 11.5392 25.0594 11.4149 25.0165C11.2905 24.9737 11.1758 24.9068 11.0773 24.8196L2.07733 16.8196C1.97093 16.7258 1.8857 16.6103 1.82733 16.481C1.76896 16.3517 1.73877 16.2115 1.73877 16.0696C1.73877 15.9277 1.76896 15.7875 1.82733 15.6582C1.8857 15.5288 1.97093 15.4134 2.07733 15.3196L11.0773 7.3196C11.1758 7.2321 11.2906 7.16487 11.4151 7.12172C11.5395 7.07858 11.6713 7.06038 11.8028 7.06816C11.9343 7.07593 12.063 7.10954 12.1815 7.16705C12.3001 7.22456 12.4061 7.30485 12.4936 7.40335C12.5811 7.50184 12.6483 7.6166 12.6915 7.74107C12.7346 7.86555 12.7528 7.99731 12.745 8.12882C12.7372 8.26033 12.7036 8.38902 12.6461 8.50754C12.5886 8.62607 12.5083 8.7321 12.4098 8.8196ZM31.4098 15.3196L22.4098 7.3196C22.2109 7.14356 21.9502 7.05375 21.6851 7.06992C21.42 7.0861 21.1721 7.20693 20.9961 7.40585C20.82 7.60476 20.7302 7.86545 20.7464 8.13058C20.7626 8.39571 20.8834 8.64356 21.0823 8.8196L29.2461 16.0696L21.0873 23.3196C20.9888 23.4068 20.9085 23.5125 20.8508 23.6307C20.7932 23.7489 20.7594 23.8773 20.7514 24.0086C20.7434 24.1399 20.7613 24.2715 20.8042 24.3958C20.847 24.5202 20.9139 24.6349 21.0011 24.7333C21.0882 24.8318 21.194 24.9122 21.3122 24.9698C21.4304 25.0275 21.5588 25.0613 21.6901 25.0693C21.8214 25.0773 21.9529 25.0594 22.0773 25.0165C22.2016 24.9737 22.3163 24.9068 22.4148 24.8196L31.4148 16.8196C31.5212 16.7258 31.6065 16.6103 31.6648 16.481C31.7232 16.3517 31.7534 16.2115 31.7534 16.0696C31.7534 15.9277 31.7232 15.7875 31.6648 15.6582C31.6065 15.5288 31.5212 15.4134 31.4148 15.3196H31.4098Z" fill="url(#paint0_linear_604_459)"/>
<defs>
<linearGradient id="paint0_linear_604_459" x1="16.7461" y1="7.06641" x2="16.7461" y2="25.0711" gradientUnits="userSpaceOnUse">
<stop stop-color="#F34EC5"/>
<stop offset="1" stop-color="#5855ED"/>
</linearGradient>
</defs>
</svg>
